<svg width="293" height="80" viewBox="0 0 293 80" fill="none" xmlns="http://www.w3.org/2000/svg">
<path d="M72.7746 42.9968L67.7849 44.335C66.6525 42.0386 65.0188 40.0272 63.0047 38.4503L70.9862 36.3065C72.3023 35.9558 73.5363 35.3485 74.6178 34.5193C75.6994 33.6902 76.6072 32.6554 77.2891 31.4742C77.9711 30.2929 78.414 28.9887 78.5925 27.6356C78.7709 26.2828 78.6814 24.9079 78.3291 23.5897C77.9766 22.2714 77.3683 21.0358 76.539 19.9535C75.7096 18.8711 74.6752 17.9633 73.4955 17.2822C72.3155 16.6009 71.0133 16.1594 69.6629 15.9831C68.3126 15.8068 66.9408 15.8992 65.6262 16.2548L32.2672 25.2112C29.6742 25.9072 27.4521 27.5849 26.0693 29.8906C24.6864 32.1965 24.2507 34.9503 24.8541 37.5718C25.4575 40.1932 27.0527 42.4774 29.3037 43.9431C31.5547 45.4089 34.2856 45.9415 36.9208 45.4288C37.1595 45.3799 37.3933 45.3263 37.6322 45.2628L50.3209 41.8541C50.3272 41.8519 50.3337 41.8503 50.3404 41.8492C52.3291 41.4596 54.3881 41.6633 56.2624 42.4349C58.1368 43.2066 59.744 44.5124 60.885 46.1907L39.4205 51.9532C35.5702 52.986 31.4819 52.6521 27.8493 51.0082C24.2168 49.3641 21.2636 46.5111 19.4908 42.9334C18.9762 41.9052 18.568 40.8268 18.2726 39.7152C17.0876 35.2831 17.708 30.5607 19.997 26.5869C22.2861 22.6131 26.0566 19.7135 30.479 18.5257L63.838 9.5645C66.0284 8.97642 68.3128 8.82648 70.5611 9.12323C72.8092 9.41997 74.9771 10.1576 76.9408 11.294C80.9068 13.5891 83.8008 17.3692 84.9858 21.8025C85.5725 23.9977 85.7222 26.2873 85.4261 28.5404C85.1299 30.7936 84.3939 32.9663 83.2601 34.9343C82.1262 36.9024 80.6165 38.6274 78.8175 40.0106C77.0184 41.394 74.965 42.4087 72.7746 42.9968Z" fill="#4375B3" stroke="#FBFBFB" stroke-width="2" stroke-miterlimit="10"/>
<path d="M56.792 68.7523L23.433 77.7087C21.2426 78.2967 18.9581 78.4467 16.7099 78.15C14.4617 77.8532 12.2938 77.1155 10.3301 75.9792C8.36631 74.8428 6.64513 73.3299 5.26478 71.5268C3.88444 69.7238 2.87197 67.6659 2.28518 65.4707C1.69838 63.2755 1.54877 60.9859 1.84486 58.7328C2.14096 56.4796 2.87699 54.3071 4.01091 52.3389C5.14481 50.3708 6.6544 48.6458 8.4535 47.2626C10.2526 45.8791 12.306 44.8644 14.4963 44.2764L19.4909 42.9334C20.6208 45.2298 22.2512 47.2426 24.2613 48.8228L16.2846 50.9667C14.9687 51.3174 13.7346 51.9247 12.6531 52.7539C11.5716 53.583 10.6638 54.6178 9.9818 55.799C9.29978 56.9802 8.8569 58.2845 8.67846 59.6375C8.50003 60.9904 8.58956 62.3652 8.94193 63.6835C9.29431 65.0017 9.90257 66.2374 10.732 67.3197C11.5614 68.402 12.5956 69.3098 13.7755 69.991C14.9554 70.6723 16.2577 71.1138 17.608 71.29C18.9584 71.4663 20.33 71.374 21.6448 71.0183L55.0037 62.062C57.5978 61.3664 59.8209 59.6883 61.204 57.3814C62.5872 55.0746 63.0222 52.3196 62.4173 49.6975C61.8123 47.0753 60.2148 44.7913 57.9616 43.327C55.7085 41.8628 52.976 41.3329 50.3405 41.8492C50.3338 41.8503 50.3272 41.8519 50.321 41.8541C50.0919 41.898 49.8677 41.9519 49.6436 42.0103L36.9208 45.4288C34.9332 45.8141 32.8765 45.6079 31.0045 44.8355C29.1323 44.0633 27.5268 42.7586 26.3858 41.0825L47.8554 35.32C50.4491 34.622 53.17 34.5415 55.8004 35.0849C58.4308 35.6285 60.8978 36.781 63.0048 38.4503C65.9333 40.7542 68.0366 43.9485 68.9982 47.5532C70.1834 51.9865 69.5633 56.7101 67.2744 60.6854C64.9854 64.6607 61.2149 67.5623 56.792 68.7523Z" fill="#4375B3" stroke="#FBFBFB" stroke-width="2" stroke-miterlimit="10"/>
<path d="M121.068 51.2387C121.068 53.7008 120.462 55.822 119.25 57.6023C118.057 59.3825 116.333 60.7462 114.08 61.6932C111.845 62.6401 109.174 63.1136 106.068 63.1136C104.553 63.1136 103.104 63.0284 101.722 62.8579C100.339 62.6876 99.0322 62.4413 97.8012 62.1193C96.589 61.7785 95.4811 61.3712 94.4773 60.8977V54.4772C96.163 55.2158 98.0475 55.8883 100.131 56.4943C102.214 57.0815 104.335 57.375 106.494 57.375C108.256 57.375 109.714 57.1478 110.869 56.6932C112.044 56.2196 112.915 55.5568 113.483 54.7046C114.051 53.8333 114.335 52.8201 114.335 51.6647C114.335 50.4337 114.004 49.392 113.341 48.5398C112.678 47.6876 111.674 46.911 110.33 46.2102C109.004 45.4905 107.337 44.7235 105.33 43.9091C103.966 43.3598 102.659 42.7348 101.409 42.034C100.178 41.3334 99.0796 40.5095 98.1137 39.5625C97.1478 38.6156 96.3807 37.498 95.8126 36.2102C95.2633 34.9034 94.9887 33.3693 94.9887 31.608C94.9887 29.2595 95.5474 27.2519 96.6648 25.5852C97.8012 23.9185 99.3921 22.6401 101.438 21.75C103.502 20.8598 105.907 20.4148 108.653 20.4148C110.831 20.4148 112.877 20.642 114.79 21.0966C116.722 21.5511 118.616 22.1951 120.472 23.0284L118.312 28.5114C116.608 27.8106 114.951 27.2519 113.341 26.8352C111.75 26.4186 110.121 26.2102 108.455 26.2102C107.015 26.2102 105.794 26.4281 104.79 26.8637C103.786 27.2992 103.019 27.9148 102.489 28.7103C101.977 29.4867 101.722 30.4148 101.722 31.4943C101.722 32.7065 102.015 33.7292 102.602 34.5625C103.208 35.3769 104.136 36.1249 105.386 36.8068C106.655 37.4886 108.284 38.2463 110.273 39.0796C112.564 40.0265 114.506 41.0208 116.097 42.0625C117.707 43.1041 118.938 44.3542 119.79 45.8125C120.642 47.2519 121.068 49.0607 121.068 51.2387ZM135.074 18.3409V29.4489C135.074 30.6042 135.036 31.731 134.96 32.8295C134.903 33.928 134.837 34.7804 134.761 35.3863H135.131C135.794 34.2879 136.608 33.3882 137.574 32.6876C138.54 31.9679 139.619 31.4281 140.813 31.0682C142.025 30.7084 143.312 30.5284 144.676 30.5284C147.081 30.5284 149.127 30.9356 150.813 31.75C152.498 32.5455 153.786 33.786 154.676 35.4716C155.586 37.1572 156.039 39.3447 156.039 42.034V62.5454H149.364V43.2841C149.364 40.8409 148.861 39.0132 147.858 37.8012C146.854 36.57 145.301 35.9546 143.199 35.9546C141.172 35.9546 139.563 36.3807 138.369 37.233C137.195 38.0663 136.352 39.3068 135.841 40.9545C135.33 42.5833 135.074 44.5719 135.074 46.9204V62.5454H128.398V18.3409H135.074ZM193.228 46.75C193.228 49.3636 192.886 51.6838 192.205 53.7103C191.523 55.7367 190.528 57.4508 189.222 58.8522C187.914 60.2349 186.343 61.2954 184.506 62.034C182.669 62.7537 180.595 63.1136 178.284 63.1136C176.125 63.1136 174.146 62.7537 172.346 62.034C170.547 61.2954 168.985 60.2349 167.66 58.8522C166.352 57.4508 165.34 55.7367 164.62 53.7103C163.9 51.6838 163.54 49.3636 163.54 46.75C163.54 43.2841 164.137 40.3485 165.33 37.9431C166.541 35.519 168.265 33.6723 170.5 32.4033C172.735 31.1344 175.396 30.5001 178.483 30.5001C181.38 30.5001 183.938 31.1344 186.153 32.4033C188.37 33.6723 190.102 35.519 191.353 37.9431C192.602 40.3674 193.228 43.303 193.228 46.75ZM170.415 46.75C170.415 49.0416 170.69 51.0019 171.239 52.6307C171.807 54.2595 172.678 55.5095 173.852 56.3806C175.027 57.233 176.541 57.659 178.397 57.659C180.253 57.659 181.769 57.233 182.943 56.3806C184.118 55.5095 184.979 54.2595 185.529 52.6307C186.077 51.0019 186.352 49.0416 186.352 46.75C186.352 44.4583 186.077 42.5171 185.529 40.9261C184.979 39.3162 184.118 38.0947 182.943 37.2614C181.769 36.409 180.244 35.983 178.37 35.983C175.604 35.983 173.587 36.911 172.319 38.767C171.049 40.6231 170.415 43.2841 170.415 46.75ZM216.835 30.5001C217.366 30.5001 217.943 30.5284 218.569 30.5852C219.193 30.642 219.732 30.7178 220.188 30.8125L219.562 37.0625C219.165 36.9488 218.672 36.8637 218.086 36.8068C217.517 36.75 217.005 36.7216 216.551 36.7216C215.359 36.7216 214.221 36.9204 213.142 37.3181C212.063 37.697 211.106 38.2841 210.272 39.0796C209.44 39.856 208.786 40.8314 208.313 42.0057C207.839 43.1799 207.603 44.5436 207.603 46.0966V62.5454H200.898V31.0966H206.125L207.034 36.6364H207.347C207.971 35.519 208.748 34.4961 209.676 33.5681C210.604 32.6401 211.666 31.9015 212.858 31.3523C214.07 30.7841 215.396 30.5001 216.835 30.5001ZM237.716 57.7159C238.588 57.7159 239.449 57.6401 240.301 57.4886C241.154 57.3181 241.93 57.1193 242.631 56.8921V61.9488C241.892 62.2708 240.935 62.5454 239.762 62.7727C238.588 63 237.366 63.1136 236.096 63.1136C234.316 63.1136 232.716 62.8201 231.296 62.233C229.875 61.6269 228.748 60.5948 227.914 59.1363C227.081 57.678 226.665 55.6609 226.665 53.0852V36.1818H222.375V33.1988L226.978 30.8409L229.165 24.1079H233.369V31.0966H242.375V36.1818H233.369V53C233.369 54.5908 233.767 55.7747 234.563 56.5511C235.359 57.3277 236.409 57.7159 237.716 57.7159ZM255.727 62.5454H249.023V18.3409H255.727V62.5454ZM260.528 31.0966H267.801L274.25 49.0512C274.534 49.8656 274.79 50.6704 275.017 51.4659C275.263 52.2425 275.472 53.0095 275.642 53.767C275.831 54.5247 275.983 55.2822 276.096 56.0397H276.268C276.457 55.055 276.722 53.9565 277.062 52.7443C277.423 51.5133 277.82 50.2822 278.256 49.0512L284.45 31.0966H291.636L278.143 66.8637C277.366 68.9091 276.409 70.6515 275.273 72.0909C274.156 73.5492 272.829 74.6477 271.296 75.3863C269.762 76.144 268.01 76.5228 266.039 76.5228C265.092 76.5228 264.269 76.4659 263.568 76.3523C262.867 76.2576 262.271 76.1535 261.779 76.0397V70.6989C262.176 70.7936 262.678 70.8788 263.284 70.9545C263.89 71.0302 264.515 71.0682 265.159 71.0682C266.352 71.0682 267.385 70.8314 268.256 70.358C269.127 69.8845 269.866 69.2121 270.471 68.3409C271.078 67.4886 271.58 66.5133 271.977 65.4148L273.085 62.4602L260.528 31.0966Z" fill="#1C2127"/>
</svg>
