<svg width="21" height="18" viewBox="0 0 21 18" fill="none" xmlns="http://www.w3.org/2000/svg">
<path d="M17.0624 8.85345L15.9386 9.16009C15.6836 8.63383 15.3157 8.17291 14.8621 7.81153L16.6596 7.32024C16.956 7.23988 17.234 7.1007 17.4775 6.91068C17.7211 6.72066 17.9255 6.48352 18.0791 6.21283C18.2327 5.94215 18.3325 5.64323 18.3727 5.33318C18.4129 5.02314 18.3927 4.70806 18.3133 4.40597C18.234 4.10388 18.097 3.82072 17.9102 3.57268C17.7234 3.32465 17.4905 3.11662 17.2247 2.96049C16.959 2.80436 16.6657 2.70321 16.3616 2.66281C16.0575 2.62242 15.7486 2.64358 15.4525 2.72508L7.93952 4.77757C7.35554 4.93706 6.85509 5.32153 6.54364 5.84995C6.23219 6.37836 6.13407 7.00944 6.26996 7.61019C6.40585 8.21093 6.76514 8.73441 7.27209 9.0703C7.77905 9.4062 8.39408 9.52826 8.98756 9.41077C9.04133 9.39958 9.09401 9.38727 9.14779 9.37272L12.0055 8.59157C12.0069 8.59106 12.0084 8.59069 12.0099 8.59045C12.4577 8.50116 12.9215 8.54782 13.3436 8.72467C13.7657 8.90151 14.1277 9.20077 14.3847 9.58536L9.55054 10.9059C8.6834 11.1426 7.76266 11.0661 6.94455 10.6894C6.12643 10.3126 5.46133 9.6588 5.06208 8.8389C4.94617 8.60326 4.85424 8.35614 4.78773 8.10139C4.52084 7.0857 4.66053 6.00349 5.17608 5.09283C5.69162 4.18218 6.54079 3.51766 7.53677 3.24547L15.0497 1.19187C15.543 1.0571 16.0575 1.02274 16.5639 1.09074C17.0702 1.15875 17.5584 1.32779 18.0007 1.58821C18.8939 2.11417 19.5457 2.98042 19.8126 3.99641C19.9447 4.49948 19.9784 5.02416 19.9117 5.54051C19.845 6.05686 19.6793 6.55475 19.4239 7.00577C19.1685 7.45679 18.8285 7.85209 18.4233 8.16912C18.0182 8.48614 17.5557 8.71868 17.0624 8.85345Z" fill="#4375B3" stroke="#FBFBFB" stroke-width="0.5" stroke-miterlimit="10"/>
<path d="M13.4629 14.7558L5.94989 16.8082C5.45659 16.943 4.94208 16.9774 4.43575 16.9094C3.92942 16.8414 3.44118 16.6723 2.99891 16.4119C2.55665 16.1515 2.16901 15.8048 1.85813 15.3916C1.54726 14.9784 1.31924 14.5068 1.18708 14.0037C1.05493 13.5006 1.02123 12.9759 1.08792 12.4596C1.1546 11.9432 1.32037 11.4454 1.57574 10.9943C1.83112 10.5433 2.1711 10.148 2.57628 9.83099C2.98147 9.51396 3.44392 9.28143 3.93722 9.14666L5.06208 8.8389C5.31655 9.36518 5.68372 9.82643 6.13646 10.1886L4.33998 10.6799C4.0436 10.7602 3.76567 10.8994 3.52209 11.0894C3.27852 11.2794 3.07408 11.5166 2.92048 11.7873C2.76688 12.058 2.66713 12.3569 2.62695 12.6669C2.58676 12.977 2.60693 13.292 2.68629 13.5941C2.76565 13.8962 2.90264 14.1794 3.08943 14.4274C3.27623 14.6755 3.50916 14.8835 3.77488 15.0396C4.04061 15.1957 4.33392 15.2969 4.63802 15.3373C4.94213 15.3777 5.25106 15.3565 5.54714 15.275L13.0601 13.2225C13.6443 13.0631 14.145 12.6786 14.4565 12.1499C14.768 11.6213 14.866 10.9899 14.7298 10.389C14.5935 9.7881 14.2337 9.26466 13.7263 8.92911C13.2188 8.59356 12.6034 8.47214 12.0099 8.59045C12.0084 8.59069 12.0069 8.59106 12.0055 8.59157C11.9539 8.60164 11.9034 8.61395 11.8529 8.62738L8.98756 9.41077C8.53992 9.49907 8.07671 9.45181 7.65509 9.27482C7.23348 9.09782 6.87189 8.79884 6.61493 8.41475L11.4502 7.09417C12.0344 6.9342 12.6471 6.91576 13.2395 7.04032C13.8319 7.16487 14.3876 7.42898 14.8621 7.81154C15.5216 8.3395 15.9953 9.07154 16.2119 9.8976C16.4788 10.9136 16.3392 11.9961 15.8237 12.9071C15.3082 13.8181 14.459 14.483 13.4629 14.7558Z" fill="#4375B3" stroke="#FBFBFB" stroke-width="0.5" stroke-miterlimit="10"/>
</svg>
